<?xml version="1.0" standalone="no"?><!DOCTYPE svg PUBLIC "-//W3C//DTD SVG 1.1//EN" "http://www.w3.org/Graphics/SVG/1.1/DTD/svg11.dtd"><svg t="1590677404244" class="icon" viewBox="0 0 1024 1024" version="1.1" xmlns="http://www.w3.org/2000/svg" p-id="3278" xmlns:xlink="http://www.w3.org/1999/xlink" width="32" height="32"><defs><style type="text/css"></style></defs><path d="M366.933333 601.6c-59.733333 0-106.666667 46.933333-106.666666 106.666667s46.933333 106.666667 106.666666 106.666666 106.666667-46.933333 106.666667-106.666666-46.933333-106.666667-106.666667-106.666667z m0 187.733333c-46.933333 0-85.333333-38.4-85.333333-85.333333s38.4-85.333333 85.333333-85.333333 85.333333 38.4 85.333334 85.333333c0 51.2-38.4 85.333333-85.333334 85.333333zM776.533333 601.6c-59.733333 0-106.666667 46.933333-106.666666 106.666667s46.933333 106.666667 106.666666 106.666666 106.666667-46.933333 106.666667-106.666666-46.933333-106.666667-106.666667-106.666667z m0 187.733333c-46.933333 0-85.333333-38.4-85.333333-85.333333s38.4-85.333333 85.333333-85.333333 85.333333 38.4 85.333334 85.333333c0 51.2-38.4 85.333333-85.333334 85.333333z" p-id="3279" fill="#ffffff"></path><path d="M908.8 435.2c0-4.266667 0-4.266667-4.266667-8.533333 0 0 0-4.266667-4.266666-4.266667l-119.466667-140.8c-4.266667-4.266667-12.8-8.533333-21.333333-8.533333h-110.933334V226.133333c0-17.066667-12.8-34.133333-34.133333-34.133333H166.4c-17.066667 0-34.133333 12.8-34.133333 34.133333v388.266667c0 17.066667 12.8 34.133333 34.133333 34.133333h59.733333c4.266667 0 12.8-4.266667 12.8-12.8s-4.266667-12.8-12.8-12.8H166.4c-4.266667 0-12.8-4.266667-12.8-12.8v-384c0-4.266667 4.266667-12.8 12.8-12.8h452.266667c4.266667 0 12.8 4.266667 12.8 12.8v388.266667c0 4.266667-4.266667 12.8-12.8 12.8H512c-4.266667 0-12.8 4.266667-12.8 12.8s4.266667 12.8 12.8 12.8h106.666667c17.066667 0 34.133333-12.8 34.133333-34.133333V294.4h110.933333s4.266667 0 4.266667 4.266667l110.933333 132.266666h-157.866666c-4.266667 0-12.8 4.266667-12.8 12.8s4.266667 12.8 12.8 12.8h170.666666v187.733334c0 4.266667 4.266667 12.8 12.8 12.8s12.8-4.266667 12.8-12.8v-192c-8.533333-8.533333-8.533333-12.8-8.533333-17.066667 0 4.266667 0 4.266667 0 0z" p-id="3280" fill="#ffffff"></path><path d="M230.4 379.733333l98.133333-98.133333c4.266667-4.266667 4.266667-12.8 0-17.066667s-12.8-4.266667-17.066666 0L217.6 362.666667c-4.266667 4.266667-4.266667 12.8 0 17.066666 0 0 4.266667 4.266667 8.533333 4.266667s4.266667-4.266667 4.266667-4.266667zM230.4 482.133333c4.266667 0 4.266667 0 8.533333-4.266666l209.066667-192c4.266667-4.266667 4.266667-12.8 0-17.066667-4.266667-4.266667-12.8-4.266667-17.066667 0l-209.066666 192c-4.266667 4.266667-4.266667 12.8 0 17.066667 4.266667 4.266667 4.266667 4.266667 8.533333 4.266666z" p-id="3281" fill="#ffffff"></path></svg>