<?xml version="1.0" standalone="no"?><!DOCTYPE svg PUBLIC "-//W3C//DTD SVG 1.1//EN" "http://www.w3.org/Graphics/SVG/1.1/DTD/svg11.dtd"><svg t="1590678028854" class="icon" viewBox="0 0 1024 1024" version="1.1" xmlns="http://www.w3.org/2000/svg" p-id="9429" xmlns:xlink="http://www.w3.org/1999/xlink" width="32" height="32"><defs><style type="text/css"></style></defs><path d="M510.5 920.9c-6.9 0-12.7-2.8-15.9-7.6L67.9 371.7l-0.2-0.2c-2.8-2.8-3-5.6-3-12.9l138.7-248.8c3.1-3.1 6.8-6.8 9.4-6.8h598.6c2.5 0 6.3 3.7 9.4 6.8l138.7 252.9c0 3.5-0.3 6.1-3 8.8l-0.2 0.2-426.6 541.2c-5 5.1-12.1 8-19.2 8z m1.5-105.3L660.6 391H363.4L512 815.6z m74.1-60.4l6 3.3 288.1-371.6H714.4L586.1 755.2z m-158.3 3.3l6-3.2L309.6 391H143.8l284 367.5z m286.6-417.6H887l-98.1-187.7H646.2l68.2 187.7z m-355.2 0h301.5l-68.2-187.7h-165l-68.3 187.7z m-226.4 0h172.7l68.2-187.7H235.2L132.8 340.9z" p-id="9430" fill="#ffffff"></path></svg>