<?xml version="1.0" standalone="no"?><!DOCTYPE svg PUBLIC "-//W3C//DTD SVG 1.1//EN" "http://www.w3.org/Graphics/SVG/1.1/DTD/svg11.dtd"><svg t="1590677478112" class="icon" viewBox="0 0 1024 1024" version="1.1" xmlns="http://www.w3.org/2000/svg" p-id="4065" xmlns:xlink="http://www.w3.org/1999/xlink" width="32" height="32"><defs><style type="text/css"></style></defs><path d="M957.357695 396.120806c-4.461615-10.766205-14.859429-17.226337-25.790386-17.226337l-60.950164 0c-55.341423-150.021805-198.770066-250.284323-359.295086-250.284323-51.67901 0-101.822037 10.125615-149.034315 30.093389-45.594431 19.284205-86.536912 46.88789-121.691573 82.043574-35.155684 35.156708-62.759369 76.102259-82.042551 121.69976-19.968797 47.217395-30.094412 97.366561-30.094412 149.053758 0 51.674916 10.125615 101.81385 30.094412 149.025105 19.284205 45.591361 46.886867 86.532819 82.042551 121.686457 35.154661 35.154661 76.098165 62.756299 121.691573 82.040505 47.213301 19.96982 97.356328 30.094412 149.034315 30.094412 72.947406 0 143.897318-20.596084 205.180056-59.560514 59.630099-37.914518 107.585297-91.415013 138.680503-154.718781 4.552689-9.271154 0.729617-20.47738-8.540514-25.031093-9.273201-4.550643-20.47738-0.730641-25.031093 8.540514-28.064172 57.133232-71.350025 105.422028-125.177977 139.64855-55.273884 35.144428-119.283734 53.719482-185.111998 53.719482-92.276636 0-179.030489-35.932374-244.279562-101.1794-65.24805-65.247027-101.18247-151.993716-101.18247-244.264213 0-92.293009 35.93442-179.056072 101.18247-244.307192 65.246003-65.24805 151.998833-101.18247 244.278539-101.18247 135.563512 0 257.612219 79.239715 313.638233 200.36233 2.118244 5.520737 3.108804 7.540743 3.913123 10.918677 2.227738 9.351995 2.593058 18.22099 2.593058 18.22099l0 83.480296c0 10.883885 6.499018 21.320585 17.22736 25.761734 10.756995 4.443196 22.686698 1.687432 30.426987-6.013971l72.164576-72.202439C959.027731 418.798295 961.783495 406.885987 957.357695 396.120806z" p-id="4066" fill="#ffffff"></path></svg>